<svg width="232" height="230" viewBox="0 0 232 230" fill="none" xmlns="http://www.w3.org/2000/svg">
<path d="M81.2302 11.4658H60.7757H60.5029C59.3984 11.4658 58.5029 12.3615 58.5029 13.4661C58.5029 13.6459 58.5029 13.7733 58.5029 13.8058V34.2603V34.4658C58.5029 35.5704 59.3987 36.4658 60.5032 36.4658C60.6467 36.4658 60.7469 36.4658 60.7757 36.4658H81.2302C81.2589 36.4658 81.3592 36.4658 81.5026 36.4658C82.6072 36.4658 83.5029 35.5699 83.5029 34.4653C83.5029 34.3585 83.5029 34.2846 83.5029 34.2603V13.8058C83.5029 13.7733 83.5029 13.6459 83.5029 13.4661C83.5029 12.3615 82.6072 11.4658 81.5026 11.4658C81.3591 11.4658 81.2589 11.4658 81.2302 11.4658ZM73.2757 34.2603H60.7757V25.1694H73.2757V34.2603ZM73.2757 22.8967H60.7757V13.8058L73.2757 13.8058V22.8967ZM81.2302 34.2603H75.5484V13.8058H81.2302V34.2603Z" fill="#CDCDCD"/>
<path d="M101.776 20.7385C101.707 20.1628 101.431 19.7158 100.946 19.3976C100.461 19.0795 99.8666 18.9204 99.162 18.9204C98.6469 18.9204 98.1961 19.0037 97.8097 19.1704C97.4272 19.337 97.1279 19.5662 96.912 19.8579C96.6999 20.1495 96.5938 20.481 96.5938 20.8522C96.5938 21.1628 96.6677 21.4298 96.8154 21.6533C96.9669 21.873 97.1601 22.0567 97.395 22.2045C97.6298 22.3484 97.876 22.4677 98.1336 22.5624C98.3912 22.6533 98.6279 22.7272 98.8438 22.784L100.026 23.1022C100.329 23.1817 100.666 23.2916 101.037 23.4317C101.412 23.5719 101.77 23.7632 102.111 24.0056C102.456 24.2442 102.74 24.551 102.963 24.926C103.187 25.301 103.298 25.7613 103.298 26.3067C103.298 26.9355 103.134 27.5037 102.804 28.0113C102.478 28.5189 102.001 28.9223 101.372 29.2215C100.747 29.5207 99.9878 29.6704 99.0938 29.6704C98.2605 29.6704 97.5389 29.5359 96.9291 29.267C96.323 28.998 95.8457 28.623 95.4972 28.142C95.1526 27.6609 94.9575 27.1022 94.912 26.4658H96.3666C96.4044 26.9052 96.5522 27.2689 96.8097 27.5567C97.0711 27.8408 97.4007 28.0529 97.7984 28.1931C98.1999 28.3295 98.6317 28.3976 99.0938 28.3976C99.6317 28.3976 100.115 28.3105 100.543 28.1363C100.971 27.9582 101.31 27.712 101.56 27.3976C101.81 27.0795 101.935 26.7082 101.935 26.284C101.935 25.8976 101.827 25.5832 101.611 25.3408C101.395 25.0984 101.111 24.9014 100.759 24.7499C100.406 24.5984 100.026 24.4658 99.6166 24.3522L98.1847 23.9431C97.2757 23.6817 96.556 23.3086 96.0257 22.8238C95.4954 22.3389 95.2302 21.7045 95.2302 20.9204C95.2302 20.2689 95.4063 19.7007 95.7586 19.2158C96.1147 18.7272 96.5919 18.3484 97.1904 18.0795C97.7927 17.8067 98.4651 17.6704 99.2075 17.6704C99.9575 17.6704 100.624 17.8048 101.207 18.0738C101.791 18.3389 102.253 18.7026 102.594 19.1647C102.939 19.6268 103.12 20.1514 103.139 20.7385H101.776ZM110.933 25.8976V20.7385H112.274V29.4658H110.933V27.9885H110.842C110.638 28.4317 110.32 28.8086 109.888 29.1192C109.456 29.426 108.911 29.5795 108.252 29.5795C107.706 29.5795 107.221 29.4601 106.797 29.2215C106.373 28.9791 106.039 28.6154 105.797 28.1306C105.555 27.642 105.433 27.0264 105.433 26.284V20.7385H106.774V26.1931C106.774 26.8295 106.952 27.337 107.308 27.7158C107.668 28.0946 108.127 28.284 108.683 28.284C109.017 28.284 109.356 28.1988 109.7 28.0283C110.049 27.8579 110.341 27.5965 110.575 27.2442C110.814 26.892 110.933 26.4431 110.933 25.8976ZM114.73 29.4658V20.7385H116.026V22.1022H116.139C116.321 21.6363 116.615 21.2745 117.02 21.017C117.425 20.7556 117.912 20.6249 118.48 20.6249C119.056 20.6249 119.535 20.7556 119.918 21.017C120.304 21.2745 120.605 21.6363 120.821 22.1022H120.912C121.136 21.6514 121.471 21.2935 121.918 21.0283C122.365 20.7594 122.901 20.6249 123.526 20.6249C124.306 20.6249 124.944 20.8692 125.44 21.3579C125.937 21.8427 126.185 22.5984 126.185 23.6249V29.4658H124.844V23.6249C124.844 22.981 124.668 22.5207 124.315 22.2442C123.963 21.9677 123.548 21.8295 123.071 21.8295C122.457 21.8295 121.982 22.0151 121.645 22.3863C121.308 22.7537 121.139 23.2196 121.139 23.784V29.4658H119.776V23.4885C119.776 22.9923 119.615 22.5927 119.293 22.2897C118.971 21.9829 118.556 21.8295 118.048 21.8295C117.7 21.8295 117.374 21.9223 117.071 22.1079C116.772 22.2935 116.529 22.551 116.344 22.8806C116.162 23.2064 116.071 23.5832 116.071 24.0113V29.4658H114.73ZM128.636 29.4658V20.7385H129.932V22.1022H130.046C130.227 21.6363 130.521 21.2745 130.926 21.017C131.332 20.7556 131.818 20.6249 132.386 20.6249C132.962 20.6249 133.441 20.7556 133.824 21.017C134.21 21.2745 134.511 21.6363 134.727 22.1022H134.818C135.042 21.6514 135.377 21.2935 135.824 21.0283C136.271 20.7594 136.807 20.6249 137.432 20.6249C138.212 20.6249 138.85 20.8692 139.347 21.3579C139.843 21.8427 140.091 22.5984 140.091 23.6249V29.4658H138.75V23.6249C138.75 22.981 138.574 22.5207 138.222 22.2442C137.869 21.9677 137.455 21.8295 136.977 21.8295C136.364 21.8295 135.888 22.0151 135.551 22.3863C135.214 22.7537 135.046 23.2196 135.046 23.784V29.4658H133.682V23.4885C133.682 22.9923 133.521 22.5927 133.199 22.2897C132.877 21.9829 132.462 21.8295 131.955 21.8295C131.606 21.8295 131.28 21.9223 130.977 22.1079C130.678 22.2935 130.436 22.551 130.25 22.8806C130.068 23.2064 129.977 23.5832 129.977 24.0113V29.4658H128.636ZM145.111 29.6704C144.558 29.6704 144.056 29.5662 143.605 29.3579C143.154 29.1457 142.796 28.8408 142.531 28.4431C142.266 28.0416 142.134 27.5567 142.134 26.9885C142.134 26.4885 142.232 26.0832 142.429 25.7726C142.626 25.4582 142.889 25.212 143.219 25.034C143.548 24.856 143.912 24.7234 144.31 24.6363C144.711 24.5454 145.115 24.4734 145.52 24.4204C146.05 24.3522 146.48 24.301 146.81 24.267C147.143 24.2291 147.386 24.1666 147.537 24.0795C147.692 23.9923 147.77 23.8408 147.77 23.6249V23.5795C147.77 23.0189 147.617 22.5832 147.31 22.2726C147.007 21.962 146.546 21.8067 145.929 21.8067C145.289 21.8067 144.787 21.9469 144.423 22.2272C144.06 22.5075 143.804 22.8067 143.656 23.1249L142.384 22.6704C142.611 22.1401 142.914 21.7272 143.293 21.4317C143.675 21.1325 144.092 20.9242 144.543 20.8067C144.997 20.6855 145.444 20.6249 145.884 20.6249C146.164 20.6249 146.486 20.659 146.85 20.7272C147.217 20.7916 147.571 20.926 147.912 21.1306C148.257 21.3351 148.543 21.6439 148.77 22.0567C148.997 22.4696 149.111 23.0226 149.111 23.7158V29.4658H147.77V28.284H147.702C147.611 28.4734 147.459 28.676 147.247 28.892C147.035 29.1079 146.753 29.2916 146.401 29.4431C146.048 29.5946 145.618 29.6704 145.111 29.6704ZM145.315 28.4658C145.846 28.4658 146.293 28.3617 146.656 28.1533C147.024 27.945 147.3 27.676 147.486 27.3465C147.675 27.017 147.77 26.6704 147.77 26.3067V25.0795C147.713 25.1476 147.588 25.2101 147.395 25.267C147.206 25.32 146.986 25.3673 146.736 25.409C146.49 25.4469 146.249 25.481 146.014 25.5113C145.783 25.5378 145.596 25.5605 145.452 25.5795C145.103 25.6249 144.778 25.6988 144.475 25.801C144.175 25.8995 143.933 26.0492 143.747 26.2499C143.565 26.4469 143.475 26.7158 143.475 27.0567C143.475 27.5226 143.647 27.8749 143.992 28.1135C144.34 28.3484 144.781 28.4658 145.315 28.4658ZM151.558 29.4658V20.7385H152.854V22.0567H152.945C153.104 21.6249 153.392 21.2745 153.808 21.0056C154.225 20.7367 154.695 20.6022 155.217 20.6022C155.316 20.6022 155.439 20.6041 155.587 20.6079C155.734 20.6117 155.846 20.6173 155.922 20.6249V21.9885C155.877 21.9772 155.772 21.9601 155.609 21.9374C155.45 21.9109 155.282 21.8976 155.104 21.8976C154.68 21.8976 154.301 21.9867 153.967 22.1647C153.638 22.3389 153.377 22.5814 153.183 22.892C152.994 23.1988 152.899 23.5492 152.899 23.9431V29.4658H151.558ZM158.641 32.7385C158.413 32.7385 158.211 32.7196 158.033 32.6817C157.855 32.6476 157.732 32.6135 157.663 32.5795L158.004 31.3976C158.33 31.481 158.618 31.5113 158.868 31.4885C159.118 31.4658 159.34 31.3541 159.533 31.1533C159.73 30.9564 159.91 30.6363 160.073 30.1931L160.323 29.5113L157.095 20.7385H158.55L160.959 27.6931H161.05L163.459 20.7385H164.913L161.209 30.7385C161.042 31.1893 160.836 31.5624 160.59 31.8579C160.343 32.1571 160.057 32.3787 159.732 32.5226C159.41 32.6666 159.046 32.7385 158.641 32.7385Z" fill="#CDCDCD"/>
<mask id="mask0_47_7" style="mask-type:alpha" maskUnits="userSpaceOnUse" x="56" y="69" width="31" height="31">
<rect x="56.0029" y="69.9658" width="30" height="30" fill="#D9D9D9"/>
</mask>
<g mask="url(#mask0_47_7)">
<path d="M60.6295 97.1682C59.9587 97.1682 59.3845 96.9294 58.9069 96.4517C58.4293 95.9741 58.1904 95.3999 58.1904 94.7292V77.656C58.1904 76.9853 58.4293 76.4111 58.9069 75.9334C59.3845 75.4558 59.9587 75.217 60.6295 75.217H71.5136L69.0746 77.656H60.6295V94.7292H77.7026V86.2535L80.1416 83.8145V94.7292C80.1416 95.3999 79.9028 95.9741 79.4252 96.4517C78.9475 96.9294 78.3734 97.1682 77.7026 97.1682H60.6295ZM74.2575 75.9182L75.9953 77.6255L67.9465 85.6743V87.4121H69.6538L77.7331 79.3328L79.4709 81.0401L71.3916 89.1194C71.1681 89.343 70.9089 89.5208 70.6142 89.6529C70.3195 89.7851 70.0095 89.8511 69.6843 89.8511H66.727C66.3815 89.8511 66.0919 89.7342 65.8581 89.5005C65.6244 89.2668 65.5075 88.9771 65.5075 88.6316V85.6743C65.5075 85.3491 65.5685 85.0391 65.6904 84.7444C65.8124 84.4497 65.9851 84.1905 66.2087 83.967L74.2575 75.9182ZM79.4709 81.0401L74.2575 75.9182L77.3063 72.8694C77.7941 72.3816 78.3784 72.1377 79.0593 72.1377C79.7402 72.1377 80.3144 72.3816 80.7819 72.8694L82.4892 74.6072C82.9567 75.0747 83.1904 75.6438 83.1904 76.3145C83.1904 76.9853 82.9567 77.5544 82.4892 78.0218L79.4709 81.0401Z" fill="#CDCDCD"/>
</g>
<path d="M95.8893 90.4658H94.412L98.6847 78.8295H100.139L104.412 90.4658H102.935L99.4575 80.6704H99.3666L95.8893 90.4658ZM96.4347 85.9204H102.389V87.1704H96.4347V85.9204ZM109.338 90.6476C108.611 90.6476 107.969 90.4639 107.412 90.0965C106.855 89.7253 106.42 89.2026 106.105 88.5283C105.791 87.8503 105.634 87.0492 105.634 86.1249C105.634 85.2082 105.791 84.4128 106.105 83.7385C106.42 83.0643 106.857 82.5435 107.418 82.176C107.978 81.8086 108.626 81.6249 109.361 81.6249C109.929 81.6249 110.378 81.7196 110.707 81.909C111.041 82.0946 111.295 82.3067 111.469 82.5454C111.647 82.7802 111.785 82.9734 111.884 83.1249H111.997V78.8295H113.338V90.4658H112.043V89.1249H111.884C111.785 89.284 111.645 89.4848 111.463 89.7272C111.281 89.9658 111.022 90.1798 110.685 90.3692C110.348 90.5548 109.899 90.6476 109.338 90.6476ZM109.52 89.4431C110.058 89.4431 110.512 89.3029 110.884 89.0226C111.255 88.7385 111.537 88.3465 111.73 87.8465C111.923 87.3427 112.02 86.7613 112.02 86.1022C112.02 85.4507 111.925 84.8806 111.736 84.392C111.546 83.8995 111.266 83.517 110.895 83.2442C110.524 82.9677 110.065 82.8295 109.52 82.8295C108.952 82.8295 108.478 82.9753 108.1 83.267C107.725 83.5548 107.442 83.9469 107.253 84.4431C107.067 84.9355 106.975 85.4885 106.975 86.1022C106.975 86.7234 107.069 87.2878 107.259 87.7954C107.452 88.2992 107.736 88.7007 108.111 88.9999C108.49 89.2954 108.959 89.4431 109.52 89.4431ZM119.276 90.6476C118.548 90.6476 117.906 90.4639 117.35 90.0965C116.793 89.7253 116.357 89.2026 116.043 88.5283C115.728 87.8503 115.571 87.0492 115.571 86.1249C115.571 85.2082 115.728 84.4128 116.043 83.7385C116.357 83.0643 116.795 82.5435 117.355 82.176C117.916 81.8086 118.564 81.6249 119.298 81.6249C119.867 81.6249 120.315 81.7196 120.645 81.909C120.978 82.0946 121.232 82.3067 121.406 82.5454C121.584 82.7802 121.723 82.9734 121.821 83.1249H121.935V78.8295H123.276V90.4658H121.98V89.1249H121.821C121.723 89.284 121.582 89.4848 121.401 89.7272C121.219 89.9658 120.959 90.1798 120.622 90.3692C120.285 90.5548 119.836 90.6476 119.276 90.6476ZM119.457 89.4431C119.995 89.4431 120.45 89.3029 120.821 89.0226C121.192 88.7385 121.475 88.3465 121.668 87.8465C121.861 87.3427 121.957 86.7613 121.957 86.1022C121.957 85.4507 121.863 84.8806 121.673 84.392C121.484 83.8995 121.204 83.517 120.832 83.2442C120.461 82.9677 120.003 82.8295 119.457 82.8295C118.889 82.8295 118.416 82.9753 118.037 83.267C117.662 83.5548 117.38 83.9469 117.19 84.4431C117.005 84.9355 116.912 85.4885 116.912 86.1022C116.912 86.7234 117.007 87.2878 117.196 87.7954C117.389 88.2992 117.673 88.7007 118.048 88.9999C118.427 89.2954 118.897 89.4431 119.457 89.4431ZM129.963 80.0795V78.8295H138.69V80.0795H135.031V90.4658H133.622V80.0795H129.963ZM142.064 90.6704C141.511 90.6704 141.009 90.5662 140.558 90.3579C140.108 90.1457 139.75 89.8408 139.484 89.4431C139.219 89.0416 139.087 88.5567 139.087 87.9885C139.087 87.4885 139.185 87.0832 139.382 86.7726C139.579 86.4582 139.842 86.212 140.172 86.034C140.502 85.856 140.865 85.7234 141.263 85.6363C141.664 85.5454 142.068 85.4734 142.473 85.4204C143.003 85.3522 143.433 85.301 143.763 85.267C144.096 85.2291 144.339 85.1666 144.49 85.0795C144.645 84.9923 144.723 84.8408 144.723 84.6249V84.5795C144.723 84.0189 144.57 83.5832 144.263 83.2726C143.96 82.962 143.5 82.8067 142.882 82.8067C142.242 82.8067 141.74 82.9469 141.377 83.2272C141.013 83.5075 140.757 83.8067 140.609 84.1249L139.337 83.6704C139.564 83.1401 139.867 82.7272 140.246 82.4317C140.628 82.1325 141.045 81.9242 141.496 81.8067C141.95 81.6855 142.397 81.6249 142.837 81.6249C143.117 81.6249 143.439 81.659 143.803 81.7272C144.17 81.7916 144.524 81.926 144.865 82.1306C145.21 82.3351 145.496 82.6439 145.723 83.0567C145.95 83.4696 146.064 84.0226 146.064 84.7158V90.4658H144.723V89.284H144.655C144.564 89.4734 144.412 89.676 144.2 89.892C143.988 90.1079 143.706 90.2916 143.354 90.4431C143.002 90.5946 142.572 90.6704 142.064 90.6704ZM142.269 89.4658C142.799 89.4658 143.246 89.3617 143.609 89.1533C143.977 88.945 144.253 88.676 144.439 88.3465C144.628 88.017 144.723 87.6704 144.723 87.3067V86.0795C144.666 86.1476 144.541 86.2101 144.348 86.267C144.159 86.32 143.939 86.3673 143.689 86.409C143.443 86.4469 143.202 86.481 142.967 86.5113C142.736 86.5378 142.549 86.5605 142.405 86.5795C142.056 86.6249 141.731 86.6988 141.428 86.801C141.128 86.8995 140.886 87.0492 140.7 87.2499C140.519 87.4469 140.428 87.7158 140.428 88.0567C140.428 88.5226 140.6 88.8749 140.945 89.1135C141.293 89.3484 141.734 89.4658 142.269 89.4658ZM154.693 83.6931L153.489 84.034C153.413 83.8332 153.301 83.6382 153.153 83.4488C153.01 83.2556 152.813 83.0965 152.563 82.9715C152.313 82.8465 151.993 82.784 151.602 82.784C151.068 82.784 150.623 82.9071 150.267 83.1533C149.915 83.3957 149.739 83.7045 149.739 84.0795C149.739 84.4128 149.86 84.676 150.102 84.8692C150.345 85.0624 150.724 85.2234 151.239 85.3522L152.534 85.6704C153.314 85.8598 153.896 86.1495 154.278 86.5397C154.661 86.926 154.852 87.4242 154.852 88.034C154.852 88.534 154.708 88.981 154.421 89.3749C154.136 89.7689 153.739 90.0795 153.227 90.3067C152.716 90.534 152.121 90.6476 151.443 90.6476C150.553 90.6476 149.816 90.4545 149.233 90.0681C148.65 89.6817 148.28 89.1173 148.125 88.3749L149.398 88.0567C149.519 88.5264 149.748 88.8787 150.085 89.1135C150.426 89.3484 150.871 89.4658 151.421 89.4658C152.046 89.4658 152.542 89.3332 152.909 89.0681C153.28 88.7992 153.466 88.4772 153.466 88.1022C153.466 87.7992 153.36 87.5454 153.148 87.3408C152.936 87.1325 152.61 86.9772 152.171 86.8749L150.716 86.534C149.917 86.3446 149.33 86.051 148.955 85.6533C148.583 85.2518 148.398 84.7499 148.398 84.1476C148.398 83.6552 148.536 83.2196 148.813 82.8408C149.093 82.462 149.474 82.1647 149.955 81.9488C150.439 81.7329 150.989 81.6249 151.602 81.6249C152.466 81.6249 153.144 81.8143 153.636 82.1931C154.133 82.5719 154.485 83.0719 154.693 83.6931ZM158.121 87.284L158.098 85.6249H158.371L162.189 81.7385H163.848L159.78 85.8522H159.666L158.121 87.284ZM156.871 90.4658V78.8295H158.212V90.4658H156.871ZM162.416 90.4658L159.007 86.1476L159.962 85.2158L164.121 90.4658H162.416Z" fill="#CDCDCD"/>
<path d="M78.9575 135.739L78.9575 156.193C78.9569 156.795 78.7173 157.373 78.2912 157.799C77.8651 158.225 77.2874 158.465 76.6848 158.466L72.1394 158.466C71.5368 158.465 70.9591 158.225 70.533 157.799C70.1069 157.373 69.8673 156.795 69.8667 156.193L69.8667 135.739C69.8673 135.136 70.1069 134.558 70.533 134.132C70.9591 133.706 71.5368 133.466 72.1394 133.466L76.6848 133.466C77.2874 133.466 77.8651 133.706 78.2912 134.132C78.7173 134.558 78.9569 135.136 78.9575 135.739ZM72.1394 156.193L76.6848 156.193L76.6848 135.739L72.1394 135.739L72.1394 156.193ZM72.1394 135.739L72.1394 156.193C72.1388 156.795 71.8992 157.373 71.4731 157.799C71.047 158.225 70.4693 158.465 69.8667 158.466L65.3213 158.466C64.7187 158.465 64.141 158.225 63.7149 157.799C63.2888 157.373 63.0492 156.795 63.0486 156.193L63.0486 135.739C63.0492 135.136 63.2888 134.558 63.7149 134.132C64.141 133.706 64.7187 133.466 65.3213 133.466L69.8667 133.466C70.4693 133.466 71.047 133.706 71.4731 134.132C71.8992 134.558 72.1388 135.136 72.1394 135.739ZM65.3213 156.193L69.8667 156.193L69.8667 135.739L65.3213 135.739L65.3213 156.193ZM65.3213 135.739L65.3213 156.193C65.3207 156.795 65.081 157.373 64.655 157.799C64.2289 158.225 63.6512 158.465 63.0486 158.466L58.5032 158.466C57.9006 158.465 57.3229 158.225 56.8968 157.799C56.4707 157.373 56.2311 156.795 56.2305 156.193L56.2305 135.739C56.2311 135.136 56.4707 134.558 56.8968 134.132C57.3229 133.706 57.9006 133.466 58.5032 133.466L63.0486 133.466C63.6512 133.466 64.2289 133.706 64.655 134.132C65.081 134.558 65.3207 135.136 65.3213 135.739ZM58.5032 156.193L63.0486 156.193L63.0486 135.739L58.5032 135.739L58.5032 156.193Z" fill="#CDCDCD"/>
<path d="M85.7756 135.739L85.7756 156.193C85.775 156.796 85.5354 157.373 85.1093 157.799C84.6832 158.226 84.1055 158.465 83.5029 158.466L78.9575 158.466C78.3549 158.465 77.7772 158.226 77.3511 157.799C76.925 157.373 76.6854 156.795 76.6848 156.193L76.6848 135.739C76.6854 135.136 76.925 134.559 77.3511 134.132C77.7772 133.706 78.3549 133.467 78.9575 133.466L83.5029 133.466C84.1055 133.467 84.6832 133.706 85.1093 134.132C85.5354 134.559 85.775 135.136 85.7756 135.739ZM78.9575 156.193L83.5029 156.193L83.5029 135.739L78.9575 135.739L78.9575 156.193Z" fill="#CDCDCD"/>
<path d="M95.412 151.466V139.829H99.4802C100.291 139.829 100.959 139.97 101.486 140.25C102.012 140.526 102.404 140.9 102.662 141.369C102.92 141.835 103.048 142.352 103.048 142.92C103.048 143.42 102.959 143.833 102.781 144.159C102.607 144.485 102.376 144.742 102.088 144.932C101.804 145.121 101.495 145.261 101.162 145.352V145.466C101.518 145.489 101.876 145.614 102.236 145.841C102.596 146.068 102.897 146.394 103.139 146.818C103.382 147.242 103.503 147.761 103.503 148.375C103.503 148.958 103.37 149.483 103.105 149.949C102.84 150.415 102.421 150.784 101.85 151.057C101.278 151.329 100.533 151.466 99.6166 151.466H95.412ZM96.8211 150.216H99.6166C100.537 150.216 101.19 150.038 101.577 149.682C101.967 149.322 102.162 148.886 102.162 148.375C102.162 147.981 102.062 147.617 101.861 147.284C101.66 146.947 101.374 146.678 101.003 146.477C100.632 146.273 100.192 146.17 99.6847 146.17H96.8211V150.216ZM96.8211 144.943H99.4347C99.859 144.943 100.242 144.86 100.582 144.693C100.927 144.526 101.2 144.292 101.401 143.989C101.605 143.686 101.707 143.329 101.707 142.92C101.707 142.409 101.529 141.975 101.173 141.619C100.817 141.259 100.253 141.079 99.4802 141.079H96.8211V144.943ZM109.182 151.648C108.394 151.648 107.703 151.46 107.108 151.085C106.517 150.71 106.055 150.186 105.722 149.511C105.392 148.837 105.227 148.049 105.227 147.148C105.227 146.239 105.392 145.445 105.722 144.767C106.055 144.089 106.517 143.562 107.108 143.187C107.703 142.812 108.394 142.625 109.182 142.625C109.97 142.625 110.659 142.812 111.25 143.187C111.845 143.562 112.307 144.089 112.636 144.767C112.97 145.445 113.136 146.239 113.136 147.148C113.136 148.049 112.97 148.837 112.636 149.511C112.307 150.186 111.845 150.71 111.25 151.085C110.659 151.46 109.97 151.648 109.182 151.648ZM109.182 150.443C109.78 150.443 110.273 150.29 110.659 149.983C111.046 149.676 111.332 149.273 111.517 148.773C111.703 148.273 111.796 147.731 111.796 147.148C111.796 146.564 111.703 146.021 111.517 145.517C111.332 145.013 111.046 144.606 110.659 144.295C110.273 143.985 109.78 143.829 109.182 143.829C108.583 143.829 108.091 143.985 107.705 144.295C107.318 144.606 107.032 145.013 106.847 145.517C106.661 146.021 106.568 146.564 106.568 147.148C106.568 147.731 106.661 148.273 106.847 148.773C107.032 149.273 107.318 149.676 107.705 149.983C108.091 150.29 108.583 150.443 109.182 150.443ZM117.752 151.67C117.198 151.67 116.697 151.566 116.246 151.358C115.795 151.146 115.437 150.841 115.172 150.443C114.907 150.042 114.774 149.557 114.774 148.989C114.774 148.489 114.873 148.083 115.07 147.773C115.267 147.458 115.53 147.212 115.859 147.034C116.189 146.856 116.553 146.723 116.95 146.636C117.352 146.545 117.755 146.473 118.161 146.42C118.691 146.352 119.121 146.301 119.45 146.267C119.784 146.229 120.026 146.167 120.178 146.079C120.333 145.992 120.411 145.841 120.411 145.625V145.579C120.411 145.019 120.257 144.583 119.95 144.273C119.647 143.962 119.187 143.807 118.57 143.807C117.93 143.807 117.428 143.947 117.064 144.227C116.7 144.507 116.445 144.807 116.297 145.125L115.024 144.67C115.252 144.14 115.555 143.727 115.933 143.432C116.316 143.132 116.733 142.924 117.183 142.807C117.638 142.686 118.085 142.625 118.524 142.625C118.805 142.625 119.127 142.659 119.49 142.727C119.858 142.792 120.212 142.926 120.553 143.131C120.897 143.335 121.183 143.644 121.411 144.057C121.638 144.47 121.752 145.023 121.752 145.716V151.466H120.411V150.284H120.342C120.252 150.473 120.1 150.676 119.888 150.892C119.676 151.108 119.394 151.292 119.041 151.443C118.689 151.595 118.259 151.67 117.752 151.67ZM117.956 150.466C118.486 150.466 118.933 150.362 119.297 150.153C119.664 149.945 119.941 149.676 120.127 149.347C120.316 149.017 120.411 148.67 120.411 148.307V147.079C120.354 147.148 120.229 147.21 120.036 147.267C119.846 147.32 119.627 147.367 119.377 147.409C119.13 147.447 118.89 147.481 118.655 147.511C118.424 147.538 118.236 147.561 118.092 147.579C117.744 147.625 117.418 147.699 117.115 147.801C116.816 147.9 116.573 148.049 116.388 148.25C116.206 148.447 116.115 148.716 116.115 149.057C116.115 149.523 116.287 149.875 116.632 150.114C116.981 150.348 117.422 150.466 117.956 150.466ZM124.199 151.466V142.739H125.494V144.057H125.585C125.744 143.625 126.032 143.275 126.449 143.006C126.866 142.737 127.335 142.602 127.858 142.602C127.957 142.602 128.08 142.604 128.227 142.608C128.375 142.612 128.487 142.617 128.563 142.625V143.989C128.517 143.977 128.413 143.96 128.25 143.937C128.091 143.911 127.922 143.898 127.744 143.898C127.32 143.898 126.941 143.987 126.608 144.165C126.278 144.339 126.017 144.581 125.824 144.892C125.635 145.199 125.54 145.549 125.54 145.943V151.466H124.199ZM133.182 151.648C132.455 151.648 131.813 151.464 131.256 151.097C130.699 150.725 130.263 150.203 129.949 149.528C129.635 148.85 129.477 148.049 129.477 147.125C129.477 146.208 129.635 145.413 129.949 144.739C130.263 144.064 130.701 143.543 131.261 143.176C131.822 142.809 132.47 142.625 133.205 142.625C133.773 142.625 134.222 142.72 134.551 142.909C134.885 143.095 135.138 143.307 135.313 143.545C135.491 143.78 135.629 143.973 135.727 144.125H135.841V139.829H137.182V151.466H135.886V150.125H135.727C135.629 150.284 135.489 150.485 135.307 150.727C135.125 150.966 134.866 151.18 134.528 151.369C134.191 151.555 133.743 151.648 133.182 151.648ZM133.364 150.443C133.902 150.443 134.356 150.303 134.727 150.023C135.099 149.739 135.381 149.347 135.574 148.847C135.767 148.343 135.864 147.761 135.864 147.102C135.864 146.451 135.769 145.881 135.58 145.392C135.39 144.9 135.11 144.517 134.739 144.244C134.368 143.968 133.909 143.829 133.364 143.829C132.796 143.829 132.322 143.975 131.943 144.267C131.568 144.555 131.286 144.947 131.097 145.443C130.911 145.936 130.818 146.489 130.818 147.102C130.818 147.723 130.913 148.288 131.102 148.795C131.296 149.299 131.58 149.701 131.955 150C132.333 150.295 132.803 150.443 133.364 150.443Z" fill="#CDCDCD"/>
<rect width="232" height="46" transform="translate(0.00292969 183.966)" fill="#091931"/>
<mask id="mask1_47_7" style="mask-type:alpha" maskUnits="userSpaceOnUse" x="56" y="191" width="31" height="31">
<rect x="56.0029" y="191.966" width="30" height="30" fill="#D9D9D9"/>
</mask>
<g mask="url(#mask1_47_7)">
<path d="M71.0029 214.466C69.8363 214.466 68.7217 214.648 67.6592 215.013C66.5967 215.377 65.6279 215.924 64.7529 216.653V216.966H77.2529V216.653C76.3779 215.924 75.4092 215.377 74.3467 215.013C73.2842 214.648 72.1696 214.466 71.0029 214.466ZM62.2529 215.528C63.3779 214.424 64.6852 213.554 66.1748 212.919C67.6644 212.284 69.2738 211.966 71.0029 211.966C72.7321 211.966 74.3415 212.284 75.8311 212.919C77.3206 213.554 78.6279 214.424 79.7529 215.528V199.466H62.2529V215.528ZM71.0029 209.466C69.7946 209.466 68.7633 209.039 67.9092 208.185C67.055 207.33 66.6279 206.299 66.6279 205.091C66.6279 203.882 67.055 202.851 67.9092 201.997C68.7633 201.143 69.7946 200.716 71.0029 200.716C72.2113 200.716 73.2425 201.143 74.0967 201.997C74.9508 202.851 75.3779 203.882 75.3779 205.091C75.3779 206.299 74.9508 207.33 74.0967 208.185C73.2425 209.039 72.2113 209.466 71.0029 209.466ZM71.0029 206.966C71.5238 206.966 71.9665 206.784 72.3311 206.419C72.6956 206.054 72.8779 205.612 72.8779 205.091C72.8779 204.57 72.6956 204.127 72.3311 203.763C71.9665 203.398 71.5238 203.216 71.0029 203.216C70.4821 203.216 70.0394 203.398 69.6748 203.763C69.3102 204.127 69.1279 204.57 69.1279 205.091C69.1279 205.612 69.3102 206.054 69.6748 206.419C70.0394 206.784 70.4821 206.966 71.0029 206.966ZM62.2529 219.466C61.5654 219.466 60.9769 219.221 60.4873 218.731C59.9977 218.242 59.7529 217.653 59.7529 216.966V199.466C59.7529 198.778 59.9977 198.19 60.4873 197.7C60.9769 197.211 61.5654 196.966 62.2529 196.966H63.5029V194.466H66.0029V196.966H76.0029V194.466H78.5029V196.966H79.7529C80.4404 196.966 81.029 197.211 81.5186 197.7C82.0081 198.19 82.2529 198.778 82.2529 199.466V216.966C82.2529 217.653 82.0081 218.242 81.5186 218.731C81.029 219.221 80.4404 219.466 79.7529 219.466H62.2529Z" fill="white"/>
</g>
<path d="M104.776 204.466H103.367C103.283 204.061 103.137 203.704 102.929 203.398C102.725 203.091 102.475 202.833 102.179 202.625C101.887 202.413 101.564 202.254 101.207 202.148C100.851 202.042 100.48 201.989 100.094 201.989C99.3893 201.989 98.751 202.167 98.1791 202.523C97.6109 202.879 97.1582 203.403 96.8211 204.097C96.4878 204.79 96.3211 205.64 96.3211 206.648C96.3211 207.655 96.4878 208.506 96.8211 209.199C97.1582 209.892 97.6109 210.417 98.1791 210.773C98.751 211.129 99.3893 211.307 100.094 211.307C100.48 211.307 100.851 211.254 101.207 211.148C101.564 211.042 101.887 210.884 102.179 210.676C102.475 210.464 102.725 210.204 102.929 209.898C103.137 209.587 103.283 209.231 103.367 208.829H104.776C104.67 209.424 104.476 209.956 104.196 210.426C103.916 210.896 103.567 211.295 103.151 211.625C102.734 211.951 102.266 212.199 101.747 212.369C101.232 212.54 100.681 212.625 100.094 212.625C99.1014 212.625 98.2188 212.382 97.4461 211.898C96.6734 211.413 96.0654 210.723 95.6222 209.829C95.1791 208.936 94.9575 207.875 94.9575 206.648C94.9575 205.42 95.1791 204.36 95.6222 203.466C96.0654 202.572 96.6734 201.882 97.4461 201.398C98.2188 200.913 99.1014 200.67 100.094 200.67C100.681 200.67 101.232 200.756 101.747 200.926C102.266 201.097 102.734 201.347 103.151 201.676C103.567 202.002 103.916 202.4 104.196 202.869C104.476 203.335 104.67 203.867 104.776 204.466ZM110.416 212.648C109.628 212.648 108.937 212.46 108.342 212.085C107.752 211.71 107.289 211.186 106.956 210.511C106.627 209.837 106.462 209.049 106.462 208.148C106.462 207.239 106.627 206.445 106.956 205.767C107.289 205.089 107.752 204.562 108.342 204.187C108.937 203.812 109.628 203.625 110.416 203.625C111.204 203.625 111.894 203.812 112.484 204.187C113.079 204.562 113.541 205.089 113.871 205.767C114.204 206.445 114.371 207.239 114.371 208.148C114.371 209.049 114.204 209.837 113.871 210.511C113.541 211.186 113.079 211.71 112.484 212.085C111.894 212.46 111.204 212.648 110.416 212.648ZM110.416 211.443C111.015 211.443 111.507 211.29 111.894 210.983C112.28 210.676 112.566 210.273 112.752 209.773C112.937 209.273 113.03 208.731 113.03 208.148C113.03 207.564 112.937 207.021 112.752 206.517C112.566 206.013 112.28 205.606 111.894 205.295C111.507 204.985 111.015 204.829 110.416 204.829C109.818 204.829 109.325 204.985 108.939 205.295C108.553 205.606 108.267 206.013 108.081 206.517C107.895 207.021 107.803 207.564 107.803 208.148C107.803 208.731 107.895 209.273 108.081 209.773C108.267 210.273 108.553 210.676 108.939 210.983C109.325 211.29 109.818 211.443 110.416 211.443ZM117.759 207.216V212.466H116.418V203.739H117.713V205.102H117.827C118.031 204.659 118.342 204.303 118.759 204.034C119.175 203.761 119.713 203.625 120.372 203.625C120.963 203.625 121.48 203.746 121.923 203.989C122.367 204.227 122.711 204.591 122.957 205.079C123.204 205.564 123.327 206.178 123.327 206.92V212.466H121.986V207.011C121.986 206.326 121.808 205.792 121.452 205.409C121.096 205.023 120.607 204.829 119.986 204.829C119.558 204.829 119.175 204.922 118.838 205.108C118.505 205.293 118.242 205.564 118.048 205.92C117.855 206.276 117.759 206.708 117.759 207.216ZM129.573 203.739V204.875H125.05V203.739H129.573ZM126.368 201.648H127.709V209.966C127.709 210.345 127.764 210.629 127.874 210.818C127.987 211.004 128.131 211.129 128.305 211.193C128.484 211.254 128.671 211.284 128.868 211.284C129.016 211.284 129.137 211.276 129.232 211.261C129.326 211.242 129.402 211.227 129.459 211.216L129.732 212.42C129.641 212.454 129.514 212.489 129.351 212.523C129.188 212.561 128.982 212.579 128.732 212.579C128.353 212.579 127.982 212.498 127.618 212.335C127.258 212.172 126.959 211.924 126.72 211.591C126.485 211.257 126.368 210.837 126.368 210.329V201.648ZM134.158 212.67C133.605 212.67 133.103 212.566 132.652 212.358C132.201 212.146 131.843 211.841 131.578 211.443C131.313 211.042 131.18 210.557 131.18 209.989C131.18 209.489 131.279 209.083 131.476 208.773C131.673 208.458 131.936 208.212 132.266 208.034C132.595 207.856 132.959 207.723 133.357 207.636C133.758 207.545 134.162 207.473 134.567 207.42C135.097 207.352 135.527 207.301 135.857 207.267C136.19 207.229 136.432 207.167 136.584 207.079C136.739 206.992 136.817 206.841 136.817 206.625V206.579C136.817 206.019 136.663 205.583 136.357 205.273C136.054 204.962 135.593 204.807 134.976 204.807C134.336 204.807 133.834 204.947 133.47 205.227C133.107 205.507 132.851 205.807 132.703 206.125L131.43 205.67C131.658 205.14 131.961 204.727 132.34 204.432C132.722 204.132 133.139 203.924 133.59 203.807C134.044 203.686 134.491 203.625 134.93 203.625C135.211 203.625 135.533 203.659 135.896 203.727C136.264 203.792 136.618 203.926 136.959 204.131C137.304 204.335 137.59 204.644 137.817 205.057C138.044 205.47 138.158 206.023 138.158 206.716V212.466H136.817V211.284H136.749C136.658 211.473 136.506 211.676 136.294 211.892C136.082 212.108 135.8 212.292 135.448 212.443C135.095 212.595 134.665 212.67 134.158 212.67ZM134.362 211.466C134.893 211.466 135.34 211.362 135.703 211.153C136.071 210.945 136.347 210.676 136.533 210.347C136.722 210.017 136.817 209.67 136.817 209.307V208.079C136.76 208.148 136.635 208.21 136.442 208.267C136.252 208.32 136.033 208.367 135.783 208.409C135.537 208.447 135.296 208.481 135.061 208.511C134.83 208.538 134.643 208.561 134.499 208.579C134.15 208.625 133.824 208.699 133.521 208.801C133.222 208.9 132.98 209.049 132.794 209.25C132.612 209.447 132.521 209.716 132.521 210.057C132.521 210.523 132.694 210.875 133.038 211.114C133.387 211.348 133.828 211.466 134.362 211.466ZM144.151 212.648C143.332 212.648 142.628 212.454 142.037 212.068C141.446 211.682 140.992 211.15 140.673 210.472C140.355 209.793 140.196 209.019 140.196 208.148C140.196 207.261 140.359 206.479 140.685 205.801C141.014 205.119 141.473 204.587 142.06 204.204C142.651 203.818 143.34 203.625 144.128 203.625C144.742 203.625 145.295 203.739 145.787 203.966C146.279 204.193 146.683 204.511 146.997 204.92C147.312 205.329 147.507 205.807 147.582 206.352H146.242C146.139 205.954 145.912 205.602 145.56 205.295C145.211 204.985 144.742 204.829 144.151 204.829C143.628 204.829 143.17 204.966 142.776 205.239C142.386 205.507 142.081 205.888 141.861 206.381C141.645 206.869 141.537 207.443 141.537 208.102C141.537 208.776 141.643 209.364 141.855 209.864C142.071 210.364 142.374 210.752 142.764 211.028C143.158 211.305 143.62 211.443 144.151 211.443C144.499 211.443 144.815 211.382 145.1 211.261C145.384 211.14 145.624 210.966 145.821 210.739C146.018 210.511 146.158 210.239 146.242 209.92H147.582C147.507 210.436 147.319 210.9 147.02 211.312C146.725 211.722 146.332 212.047 145.844 212.29C145.359 212.528 144.795 212.648 144.151 212.648ZM153.338 203.739V204.875H148.815V203.739H153.338ZM150.134 201.648H151.475V209.966C151.475 210.345 151.529 210.629 151.639 210.818C151.753 211.004 151.897 211.129 152.071 211.193C152.249 211.254 152.437 211.284 152.634 211.284C152.781 211.284 152.903 211.276 152.997 211.261C153.092 211.242 153.168 211.227 153.225 211.216L153.497 212.42C153.406 212.454 153.279 212.489 153.117 212.523C152.954 212.561 152.747 212.579 152.497 212.579C152.118 212.579 151.747 212.498 151.384 212.335C151.024 212.172 150.725 211.924 150.486 211.591C150.251 211.257 150.134 210.837 150.134 210.329V201.648ZM161.381 205.693L160.176 206.034C160.1 205.833 159.989 205.638 159.841 205.449C159.697 205.256 159.5 205.097 159.25 204.972C159 204.847 158.68 204.784 158.29 204.784C157.756 204.784 157.311 204.907 156.955 205.153C156.602 205.396 156.426 205.704 156.426 206.079C156.426 206.413 156.547 206.676 156.79 206.869C157.032 207.062 157.411 207.223 157.926 207.352L159.222 207.67C160.002 207.86 160.583 208.15 160.966 208.54C161.349 208.926 161.54 209.424 161.54 210.034C161.54 210.534 161.396 210.981 161.108 211.375C160.824 211.769 160.426 212.079 159.915 212.307C159.403 212.534 158.809 212.648 158.131 212.648C157.241 212.648 156.504 212.454 155.921 212.068C155.337 211.682 154.968 211.117 154.813 210.375L156.085 210.057C156.207 210.526 156.436 210.879 156.773 211.114C157.114 211.348 157.559 211.466 158.108 211.466C158.733 211.466 159.229 211.333 159.597 211.068C159.968 210.799 160.153 210.477 160.153 210.102C160.153 209.799 160.047 209.545 159.835 209.341C159.623 209.132 159.297 208.977 158.858 208.875L157.403 208.534C156.604 208.345 156.017 208.051 155.642 207.653C155.271 207.252 155.085 206.75 155.085 206.148C155.085 205.655 155.224 205.22 155.5 204.841C155.78 204.462 156.161 204.165 156.642 203.949C157.127 203.733 157.676 203.625 158.29 203.625C159.153 203.625 159.832 203.814 160.324 204.193C160.82 204.572 161.172 205.072 161.381 205.693Z" fill="white"/>
</svg>
